<svg xmlns="http://www.w3.org/2000/svg" xmlns:xlink="http://www.w3.org/1999/xlink" version="1.1" x="0px" y="0px" width="512px" height="512px" viewBox="0 0 512 512" enable-background="new 0 0 512 512" xml:space="preserve">

<path id="stop-3-icon" d="M341.273 50H170.617L49.945 170.672v170.656L170.617 462h170.656l120.672-120.672V170.672L341.273 50z M375.754 256.937c-2.589 6.741-35.903 78.956-44.125 97.403c-8.619 19.342-19.513 38.65-50.594 38.65c0 0-38.722 0-60.921 0 c-32.709 0-49.979-19.407-49.979-53.352c0-37.551 0.058-148.121 0.058-148.121c0-19.643 27.062-18.643 27.062-0.909v64.944 c0 5.3 9.8 5.3 9.8 0l0.105-104.356c0-20.196 30.516-19.653 30.5 0v98.52c0 5.4 9.1 5.2 9.095-0.112V133.975 c0-19.66 29.955-20.244 30 0l0.014 116.954c0 5.2 9.5 5.4 9.5 0c0-2.448 0-98.23 0-98.23 c0-18.594 27.915-19.165 27.9 0v121.596c0 6.8 7.7 7.9 10.3 2.696c2.42-4.944 17.989-36.387 18.108-36.624 C352.563 219.3 386.2 232.1 375.8 256.937z"/>

</svg>
